<svg width="68" height="44" viewBox="0 0 68 44" fill="none" xmlns="http://www.w3.org/2000/svg">
<path fill-rule="evenodd" clip-rule="evenodd" d="M5.72755 10.2546L32.3941 24.9212C33.3944 25.4714 34.6066 25.4714 35.6069 24.9212L62.2734 10.2547C63.8865 9.36747 64.4749 7.34062 63.5877 5.72755C62.7006 4.11449 60.6737 3.52605 59.0606 4.41324L34.0005 18.1963L8.94033 4.41323C7.32727 3.52605 5.30041 4.11449 4.41323 5.72755C3.52605 7.34061 4.11449 9.36746 5.72755 10.2546ZM5.72755 24.9212L32.3941 39.5878C33.3944 40.138 34.6066 40.138 35.6069 39.5878L62.2734 24.9213C63.8865 24.0341 64.4749 22.0072 63.5877 20.3942C62.7006 18.7811 60.6737 18.1927 59.0606 19.0798L34.0005 32.8629L8.94033 19.0798C7.32727 18.1926 5.30042 18.7811 4.41323 20.3941C3.52605 22.0072 4.11449 24.0341 5.72755 24.9212Z" fill="#B513A7"/>
</svg>
