<svg width="240" height="240" viewBox="0 0 240 240" fill="none" xmlns="http://www.w3.org/2000/svg">
<path d="M24.6479 136.749C24.6479 137.606 24.3442 138.25 23.7367 138.678C23.1293 139.107 22.4682 139.322 21.7535 139.322C19.7882 139.322 18.8055 138.464 18.8055 136.749V98.6928C18.8055 96.9776 19.7882 96.12 21.7535 96.12C23.7189 96.12 24.7015 96.9776 24.7015 98.6928V106.733H36.0111C37.8335 106.733 39.7274 107.412 41.6927 108.77C43.6223 110.127 44.5871 112.271 44.5871 115.202V131.174C44.5871 134.14 43.7117 136.177 41.9607 137.285C40.2098 138.428 38.2087 139 35.9575 139H29.6327C28.3463 139 27.6674 138.16 27.5959 136.481C27.5959 134.801 28.2749 133.962 29.6327 133.962H34.9927C36.3149 133.962 37.2618 133.729 37.8335 133.265C38.4053 132.765 38.6911 132.05 38.6911 131.121V115.684C38.6911 114.755 38.4053 113.862 37.8335 113.004L37.8871 113.058C37.4226 112.2 36.4757 111.771 35.0463 111.771H24.7015L24.6479 136.749Z" fill="white"/>
<path d="M76.9356 130.478C76.9356 131.907 76.6855 133.175 76.1852 134.283C75.6849 135.391 74.9702 136.284 74.0412 136.963H74.0948C73.2014 137.571 72.2545 138.071 71.254 138.464C70.2534 138.821 69.2886 139 68.3596 139H59.73C58.8366 139 57.8718 138.821 56.8356 138.464C55.835 138.071 54.8881 137.571 53.9948 136.963H54.0484C53.1193 136.284 52.4046 135.391 51.9044 134.283C51.4041 133.175 51.154 131.907 51.154 130.478V108.984C51.154 107.269 52.1367 106.411 54.102 106.411C56.0673 106.411 57.05 107.269 57.05 108.984V130.049C57.05 131.049 57.3001 131.925 57.8004 132.675C58.2649 133.533 59.2297 133.962 60.6948 133.962H67.3948C68.8241 133.962 69.771 133.533 70.2356 132.675L70.182 132.729C70.7537 131.871 71.0396 130.978 71.0396 130.049V108.984C71.0396 107.269 72.0222 106.411 73.9876 106.411C75.9529 106.411 76.9356 107.269 76.9356 108.984V130.478Z" fill="white"/>
<path d="M89.5018 136.749C89.5018 137.606 89.1981 138.25 88.5906 138.678C87.9832 139.107 87.3221 139.322 86.6074 139.322C84.6421 139.322 83.6594 138.464 83.6594 136.749V98.6928C83.6594 96.9776 84.6421 96.12 86.6074 96.12C88.5728 96.12 89.5554 96.9776 89.5554 98.6928V106.733H100.865C102.687 106.733 104.581 107.412 106.547 108.77C108.476 110.127 109.441 112.271 109.441 115.202V131.174C109.441 134.14 108.566 136.177 106.815 137.285C105.064 138.428 103.063 139 100.811 139H94.4866C93.2002 139 92.5213 138.16 92.4498 136.481C92.4498 134.801 93.1288 133.962 94.4866 133.962H99.8466C101.169 133.962 102.116 133.729 102.687 133.265C103.259 132.765 103.545 132.05 103.545 131.121V115.684C103.545 114.755 103.259 113.862 102.687 113.004L102.741 113.058C102.277 112.2 101.33 111.771 99.9002 111.771H89.5554L89.5018 136.749Z" fill="white"/>
<path d="M122.065 136.749C122.065 138.464 121.082 139.322 119.117 139.322C117.116 139.322 116.115 138.464 116.115 136.749V109.091C116.115 107.376 117.116 106.518 119.117 106.518C121.082 106.518 122.065 107.376 122.065 109.091V136.749ZM123.19 99.7648C123.19 100.908 122.797 101.873 122.011 102.659C121.225 103.445 120.26 103.838 119.117 103.838C117.973 103.838 116.991 103.445 116.169 102.659C115.383 101.873 114.989 100.908 114.989 99.7648C114.989 98.5856 115.383 97.6029 116.169 96.8168C116.991 96.0306 117.973 95.6376 119.117 95.6376C120.26 95.6376 121.225 96.0306 122.011 96.8168C122.797 97.6029 123.19 98.5856 123.19 99.7648Z" fill="white"/>
<path d="M135.409 136.749C135.409 138.464 134.426 139.322 132.461 139.322C130.495 139.322 129.513 138.464 129.513 136.749V115.202C129.513 113.737 129.745 112.468 130.209 111.396C130.674 110.324 131.406 109.449 132.407 108.77C134.301 107.412 136.195 106.733 138.089 106.733H146.718C148.541 106.733 150.434 107.412 152.4 108.77C154.329 110.127 155.294 112.271 155.294 115.202V136.749C155.294 138.464 154.312 139.322 152.346 139.322C150.381 139.322 149.398 138.464 149.398 136.749V115.684C149.398 114.755 149.112 113.862 148.541 113.004L148.594 113.058C148.13 112.2 147.183 111.771 145.753 111.771H139.053C137.588 111.771 136.624 112.2 136.159 113.058C135.659 113.808 135.409 114.683 135.409 115.684V136.749Z" fill="white"/>
<path d="M170.857 135.248C169.928 135.248 168.963 135.087 167.963 134.766C166.998 134.444 166.051 133.979 165.122 133.372C163.192 132.121 162.227 130.013 162.227 127.047V114.934C162.227 113.433 162.478 112.146 162.978 111.074C163.514 110.002 164.228 109.163 165.122 108.555C166.051 107.983 166.998 107.537 167.963 107.215C168.927 106.894 169.874 106.733 170.803 106.733H179.808C180.702 106.733 181.631 106.929 182.595 107.322C183.56 107.715 184.454 108.216 185.275 108.823C186.097 109.502 186.758 110.395 187.259 111.503C187.759 112.611 188.009 113.862 188.009 115.255V137.982C188.009 139.482 187.759 140.751 187.259 141.787C186.794 142.859 186.133 143.753 185.275 144.467C184.454 145.146 183.56 145.664 182.595 146.022C181.666 146.415 180.737 146.611 179.808 146.611H170.803C168.91 146.611 166.998 146.057 165.068 144.95C164.068 144.378 163.335 143.645 162.871 142.752C162.442 141.859 162.227 140.822 162.227 139.643V139C162.227 138.285 162.46 137.714 162.924 137.285C163.389 136.856 164.121 136.642 165.122 136.642C167.123 136.856 168.123 137.642 168.123 139V139.59C168.123 139.983 168.391 140.411 168.927 140.876C169.499 141.341 170.446 141.573 171.768 141.573H178.468C179.79 141.573 180.719 141.198 181.255 140.447C181.827 139.697 182.113 138.857 182.113 137.928V115.309C182.113 114.415 181.827 113.611 181.255 112.897C180.719 112.146 179.79 111.771 178.468 111.771H171.768C170.446 111.771 169.499 112.146 168.927 112.897C168.391 113.611 168.123 114.415 168.123 115.309V126.618C168.123 127.512 168.391 128.351 168.927 129.138C169.499 129.888 170.446 130.263 171.768 130.263H177.343C178.629 130.263 179.272 131.085 179.272 132.729C179.272 133.479 179.111 134.087 178.79 134.551C178.504 135.016 178.022 135.248 177.343 135.248H170.857Z" fill="white"/>
<path d="M203.298 139C202.19 139 201.136 138.857 200.135 138.571C199.135 138.25 198.17 137.803 197.241 137.231V137.285C195.49 136.177 194.614 134.14 194.614 131.174V128.548C194.614 127.083 194.865 125.814 195.365 124.742C195.901 123.635 196.633 122.759 197.562 122.116H197.509C198.402 121.509 199.349 121.062 200.35 120.776C201.35 120.454 202.315 120.294 203.244 120.294H215.09V115.309C215.09 114.415 214.804 113.611 214.232 112.897C213.696 112.146 212.767 111.771 211.445 111.771H205.174C203.816 111.771 202.869 112.111 202.333 112.79C201.833 113.433 201.582 114.201 201.582 115.094V115.523C201.582 117.381 200.582 118.31 198.581 118.31C196.58 118.31 195.579 117.381 195.579 115.523V115.041C195.579 113.576 195.829 112.343 196.33 111.342C196.866 110.342 197.58 109.502 198.474 108.823H198.42C199.349 108.216 200.314 107.715 201.314 107.322C202.351 106.929 203.333 106.733 204.262 106.733H212.41C213.303 106.733 214.25 106.929 215.25 107.322C216.287 107.715 217.251 108.216 218.145 108.823H218.091C219.02 109.502 219.735 110.395 220.235 111.503C220.735 112.575 220.986 113.826 220.986 115.255V136.749C220.986 138.464 220.003 139.322 218.038 139.322C217.645 139.322 217.269 139.304 216.912 139.268C216.59 139.232 216.287 139.143 216.001 139C215.751 138.821 215.536 138.589 215.358 138.303C215.215 137.982 215.143 137.571 215.143 137.07L215.09 125.332H204.262C203.476 125.332 202.869 125.421 202.44 125.6C202.011 125.779 201.672 126.065 201.422 126.458C201.136 127.065 200.921 127.547 200.778 127.905C200.671 128.226 200.618 128.602 200.618 129.03V131.121C200.618 132.05 200.886 132.765 201.422 133.265C201.993 133.729 202.958 133.962 204.316 133.962H210.319C211.641 133.962 212.302 134.801 212.302 136.481C212.302 137.195 212.142 137.803 211.82 138.303C211.498 138.768 210.998 139 210.319 139H203.298Z" fill="white"/>
</svg>
