<svg width="525" height="520" viewBox="0 0 525 520" fill="none" xmlns="http://www.w3.org/2000/svg">
    <path d="M173.196 322.648C172.756 322.208 171.656 321.24 170.468 320.14C171.656 318.908 173.02 317.28 174.648 315.872L170.6 312.484C169.852 313.936 168.576 315.96 167.476 317.5L166.508 316.708C168.62 313.408 170.468 309.8 171.788 306.148L168.224 303.772L167.168 304.036H166.376V296.424H160.084V304.036H154.76V309.756H163.956C161.404 314.596 157.532 319.304 153.528 322.032C154.54 323.176 156.212 326.344 156.784 327.972C157.884 327.092 158.984 326.08 160.084 324.936V338.18H166.376V323.528C167.564 324.936 168.664 326.388 169.456 327.532L173.196 322.648ZM171.172 299.372V305.4H176.936C176.716 316.444 176.144 326.784 167.388 333.12C169.104 334.352 171.04 336.508 172.096 338.224C181.864 330.568 183.096 318.248 183.448 305.4H188.42C188.156 322.428 187.76 329.424 186.572 330.832C186.088 331.536 185.648 331.756 184.9 331.756C183.844 331.756 181.952 331.756 179.796 331.58C180.896 333.472 181.732 336.376 181.82 338.18C184.196 338.224 186.616 338.268 188.288 337.872C190.048 337.476 191.28 336.816 192.556 334.792C194.228 332.328 194.624 324.452 195.02 302.54C195.064 301.704 195.064 299.372 195.064 299.372H171.172ZM221.684 320.272H215.568V314.024H221.684V320.272ZM209.54 308.48V325.772H228.108V308.48H209.54ZM206.504 329.864V304.256H231.188V329.864H206.504ZM199.86 297.7V338.18H206.504V335.804H231.188V338.18H238.184V297.7H199.86ZM251.12 298.712V305.224H260.844C260.976 306.588 261.152 308.04 261.416 309.536L258.248 308.964C256.004 320.14 250.856 328.5 241.968 332.9C243.64 334.088 246.632 336.772 247.82 338.136C254.904 333.78 260.096 326.828 263.44 317.632C265.948 325.288 270.612 333.032 278.972 338.048C280.072 336.42 282.668 333.56 284.12 332.416C268.412 323.264 267.136 307.38 267.136 298.712H251.12ZM303.304 323.968V331.58H298.904L302.116 330.172C301.544 328.412 300.092 325.992 298.684 323.968H303.304ZM314.7 323.968C313.776 326.168 312.28 328.808 311.048 330.612L313.38 331.58H310.124V323.968H314.7ZM300.312 309.448C302.952 307.16 305.196 304.74 306.824 302.452C308.452 304.696 310.828 307.116 313.512 309.448H300.312ZM316.812 323.968H322.84V318.512H310.124V314.992H317.956V312.924C320.068 314.42 322.224 315.784 324.336 316.928C325.524 314.948 326.976 312.792 328.56 311.164C321.52 308.436 314.7 303.068 309.904 296.204H303.216C300.048 301.44 293.096 308.084 285.572 311.692C286.936 313.012 288.784 315.388 289.576 316.884C291.688 315.74 293.756 314.464 295.736 313.056V314.992H303.304V318.512H290.72V323.968H296.22L292.964 325.332C294.24 327.224 295.516 329.688 296.264 331.58H288.388V337.036H325.656V331.58H316.68C318 329.908 319.54 327.664 321.08 325.508L316.812 323.968ZM331.816 303.156L332.476 310.416C337.756 309.228 345.5 308.348 349.284 307.952C346.908 310.108 343.696 314.772 343.696 320.8C343.696 330.172 352.1 335.496 361.912 336.244L364.42 328.852C356.808 328.412 350.736 325.86 350.736 319.392C350.736 314.156 354.828 309.008 359.58 307.952C362 307.468 365.74 307.468 368.028 307.424L367.984 300.56C364.772 300.692 359.58 301 355.18 301.352C347.128 302.056 340.484 302.584 336.348 302.936C335.512 303.024 333.576 303.112 331.816 303.156ZM361.78 311.12L357.952 312.704C359.36 314.728 360.108 316.18 361.296 318.732L365.212 317.016C364.42 315.388 362.88 312.748 361.78 311.12ZM366.752 309.008L362.968 310.724C364.42 312.704 365.256 314.068 366.532 316.576L370.404 314.728C369.524 313.144 367.896 310.592 366.752 309.008Z" fill="black"/>
    <path d="M187.488 501.424L181.416 498.564C179.568 502.392 176.18 507.012 173.232 509.872L178.996 513.788C181.328 511.236 185.376 505.384 187.488 501.424ZM206.672 498.344L200.864 501.512C202.888 504.196 205.924 509.432 207.904 513.392L214.152 509.96C212.392 506.748 208.872 501.16 206.672 498.344ZM206.012 480.964L201.876 482.636C203.064 484.352 204.164 486.596 205.088 488.4L209.268 486.64C208.476 485.1 207.112 482.592 206.012 480.964ZM212.04 479.688L207.904 481.36C209.092 483.032 210.324 485.276 211.204 487.08L215.34 485.32C214.592 483.824 213.184 481.36 212.04 479.688ZM198.224 481.8H190.348C190.524 482.636 190.744 484.792 190.744 486.024V488.972H180.184C178.82 488.972 177.016 488.796 175.652 488.62V495.616C176.928 495.484 178.864 495.44 180.184 495.44H190.744C190.744 497.42 190.744 510.708 190.7 511.94C190.656 513.084 190.26 513.436 189.16 513.436C188.104 513.436 186.212 513.304 184.364 512.952L185.024 519.508C187.488 519.816 190.04 519.904 192.68 519.904C196.068 519.904 197.74 518.1 197.74 515.416V495.44H207.244C208.52 495.44 210.456 495.484 211.952 495.616V488.664C210.72 488.84 208.564 488.972 207.2 488.972H197.74V486.068C197.74 484.88 198.092 482.416 198.224 481.8ZM219.784 495.88V504.284C221.588 504.152 224.888 504.02 227.396 504.02H250.76C252.564 504.02 255.028 504.24 256.172 504.284V495.88C254.896 495.968 252.74 496.188 250.76 496.188H227.396C225.24 496.188 221.544 496.012 219.784 495.88ZM279.492 487.344V491.568H268.932C267.04 491.568 265.148 491.392 263.564 491.216V498.608C265.192 498.476 267.04 498.344 269.108 498.344H279.404C278.876 505.032 276.192 511.104 267.48 515.02L274.124 519.948C283.848 514.052 286.444 506.748 286.84 498.344H295.728C297.708 498.344 300.084 498.476 301.14 498.564V491.26C300.084 491.392 298.104 491.568 295.772 491.568H286.884V487.388C286.884 485.98 286.972 483.428 287.28 481.756H278.832C279.316 483.428 279.492 485.804 279.492 487.344ZM341.532 486.948L337.176 483.736C336.164 484.088 334.096 484.396 331.896 484.396H317.2C315.924 484.396 313.108 484.264 311.568 484.044V491.612C312.8 491.524 315.22 491.26 317.2 491.26H330.884C329.96 494.076 327.584 497.948 324.724 501.204C320.808 505.56 313.856 510.972 306.728 513.568L312.272 519.332C318.036 516.56 323.8 512.116 328.42 507.32C332.38 511.148 336.12 515.372 338.936 519.376L345.052 514.052C342.632 511.06 337.352 505.472 333.084 501.776C335.944 497.816 338.276 493.416 339.728 490.16C340.212 489.06 341.136 487.52 341.532 486.948Z" fill="black"/>
    <path d="M157.5 463.5H169.2V451.6C181.1 449 187 440.4 187 429.4C187 407.9 157 408.4 157 398.3C157 393.3 159.8 391.4 165.1 391.4C169.7 391.4 173.3 393.3 177.4 397L186.2 386.8C181.8 382 176.5 378.5 169.2 377.4V365.8H157.5V377.6C146.6 379.8 140.1 387.7 140.1 399.1C140.1 419.5 170 419.8 170 430.7C170 435.6 167.3 438 161.1 438C155.9 438 150.9 435.9 145 431.4L137.2 443.4C142.7 448.4 150.8 451.4 157.5 452.2V463.5ZM201.738 451H248.738V436.6H235.338V376.5H222.238C217.038 379.8 211.838 381.8 203.838 383.3V394.3H217.538V436.6H201.738V451ZM283.375 452.4C297.675 452.4 310.275 442.7 310.275 426C310.275 409.9 299.675 402.5 287.075 402.5C284.275 402.5 282.075 402.9 279.375 404L280.475 391.4H306.975V376.5H265.175L263.275 413.4L271.075 418.5C275.475 415.7 277.475 414.9 281.575 414.9C287.975 414.9 292.475 418.9 292.475 426.4C292.475 434.1 287.975 438 280.775 438C274.875 438 269.675 434.9 265.475 430.9L257.375 442.1C263.275 447.9 271.475 452.4 283.375 452.4ZM346.313 452.4C362.013 452.4 372.613 439 372.613 413.4C372.613 387.9 362.013 375.2 346.313 375.2C330.613 375.2 319.913 387.8 319.913 413.4C319.913 439 330.613 452.4 346.313 452.4ZM346.313 438.6C341.013 438.6 336.713 433.8 336.713 413.4C336.713 393.1 341.013 388.8 346.313 388.8C351.613 388.8 355.813 393.1 355.813 413.4C355.813 433.8 351.613 438.6 346.313 438.6ZM407.25 452.4C422.95 452.4 433.55 439 433.55 413.4C433.55 387.9 422.95 375.2 407.25 375.2C391.55 375.2 380.85 387.8 380.85 413.4C380.85 439 391.55 452.4 407.25 452.4ZM407.25 438.6C401.95 438.6 397.65 433.8 397.65 413.4C397.65 393.1 401.95 388.8 407.25 388.8C412.55 388.8 416.75 393.1 416.75 413.4C416.75 433.8 412.55 438.6 407.25 438.6Z" fill="url(#paint0_linear_7_34)"/>
    <path d="M106.606 381.096H92.09V380.184H106.606V381.096ZM106.606 385.276H92.09V384.326H106.606V385.276ZM112.154 376.726H86.808V388.734H112.154V376.726ZM108.962 399.032C108.468 399.982 107.898 400.856 107.214 401.692C106.492 400.856 105.846 399.982 105.352 399.032H108.962ZM90.19 404.618V403.402H94.104V404.39L90.19 404.618ZM90.19 398.652H94.104V399.678H90.19V398.652ZM94.104 394.016V394.928H90.19V394.016H94.104ZM112.154 394.738L111.242 394.89H100.07V399.032H103.604L100.716 399.83C101.59 401.692 102.578 403.364 103.794 404.846C102.464 405.796 100.982 406.594 99.386 407.164V394.016H116.6V389.684H82.362V394.016H85.174V404.884C84.034 404.96 82.97 404.998 82.02 405.036L82.362 409.748C85.668 409.482 89.886 409.178 94.104 408.874V411.61H99.386V408.152C100.26 409.216 101.172 410.66 101.666 411.686C103.832 410.812 105.808 409.748 107.556 408.418C109.456 409.786 111.66 410.85 114.168 411.572C114.852 410.28 116.296 408.266 117.398 407.278C115.08 406.746 112.99 405.948 111.204 404.884C113.142 402.49 114.624 399.564 115.574 395.992L112.154 394.738ZM116.562 438.09V432.352H101.97C102.274 429.008 102.312 425.664 102.35 422.51H96.27C96.232 425.664 96.27 429.008 96.004 432.352H82.514V438.09H95.092C93.572 444.284 90.076 449.984 81.754 453.746C83.388 454.962 85.06 456.938 85.934 458.458C93.42 454.734 97.448 449.452 99.614 443.6C102.54 450.326 106.72 455.38 113.408 458.458C114.282 456.862 116.144 454.43 117.512 453.214C110.52 450.516 106.112 444.968 103.642 438.09H116.562Z" fill="black"/>
    <line x1="41" y1="257" x2="485" y2="257" stroke="#B513A7" stroke-width="10" stroke-linecap="round"/>
    <path d="M27.86 28.56V35.512C29.092 35.424 31.028 35.336 32.304 35.336H43.788C43.524 38.768 42.688 41.804 40.972 44.356C39.212 46.82 36.132 49.328 33.184 50.428L39.432 54.916C43.436 52.892 46.868 49.328 48.364 46.204C49.86 43.212 50.96 39.736 51.268 35.336H61.124C62.444 35.336 64.292 35.38 65.48 35.468V28.56C64.248 28.78 62.048 28.868 61.124 28.868H32.304C30.94 28.868 29.224 28.736 27.86 28.56ZM59.848 14.48L55.712 16.152C55.932 16.504 56.196 16.9 56.416 17.296C54.964 17.472 53.38 17.56 51.928 17.56H37.98C36.484 17.56 34.372 17.428 32.876 17.208V24.028C34.328 23.94 36.44 23.852 37.98 23.852H51.928C53.6 23.852 55.404 23.94 57.032 24.028V18.308C57.78 19.672 58.528 21.124 59.1 22.268L63.28 20.508C62.488 18.968 60.948 16.108 59.848 14.48ZM65.26 12.368L61.124 14.04C62.312 15.712 63.72 18.308 64.6 20.112L68.736 18.352C67.988 16.856 66.404 14.04 65.26 12.368ZM76.304 18.044V24.644C77.668 24.556 79.12 24.512 80.748 24.512H85.016V30.98H78.592C77.14 30.98 74.676 30.804 73.4 30.716V37.668C74.808 37.58 77.272 37.448 78.592 37.448H85.016V45.104C85.016 50.032 86.908 53.024 95.752 53.024C99.844 53.024 105.256 52.892 107.808 52.76L108.292 45.5C104.904 45.852 100.856 46.116 97.072 46.116C93.816 46.116 92.364 45.5 92.364 42.992V37.448H104.948C105.916 37.448 108.116 37.404 109.436 37.58L109.392 30.76C108.16 30.848 105.696 30.98 104.772 30.98H92.364V24.512H102.088C103.716 24.512 105.036 24.6 106.224 24.644V18.044C105.168 18.176 103.584 18.264 102.088 18.264H80.748C79.12 18.264 77.668 18.132 76.304 18.044ZM123.824 44.356V24.028H145.868V44.356H123.824ZM117.136 17.516V54.432H123.824V50.956H145.868V54.432H152.908V17.516H117.136ZM186.128 45.632H197.436V40.176H186.128V36.744C187.096 37.536 188.064 38.46 188.592 39.032C189.956 37.976 191.144 36.7 192.112 35.204C193.784 36.656 195.368 38.108 196.336 39.164L200.032 34.72C198.756 33.488 196.512 31.728 194.488 30.144C194.972 28.604 195.324 26.976 195.588 25.216L189.912 24.6C189.472 28.296 188.328 31.464 186.128 33.708V24.16H179.968V32.916C179.132 32.036 178.12 31.068 177.064 30.188C177.504 28.604 177.812 26.888 177.988 24.996L172.18 24.6C171.828 29.22 170.508 32.872 167.296 35.16C167.428 32.916 167.472 30.804 167.472 28.956V22.928H199.284V17.032H183.796V13.38H177.108V17.032H161.224V28.912C161.224 35.424 160.96 44.84 157.484 51.176C158.98 51.792 161.796 53.64 162.94 54.74C165.712 49.68 166.856 42.288 167.252 35.82C168.616 36.744 170.552 38.328 171.388 39.208C172.796 38.152 173.94 36.832 174.908 35.336C176.008 36.48 177.02 37.624 177.636 38.504L179.968 35.6V40.176H169.496V45.632H179.968V48.756H166.768V54.212H199.68V48.756H186.128V45.632ZM215.828 19.408V20.904H210.46V19.408H215.828ZM210.46 26.58V24.952H215.828V26.58H210.46ZM221.812 31.068V14.964H204.212V55.18H210.46V31.068H221.812ZM221.372 40.528V38.02H224.276V40.528H221.372ZM234.132 45.676V40.528H229.864V38.02H233.516V33.048H212.484V38.02H215.96V40.528H211.912V45.676H215.696C215.212 47.744 214.024 50.208 211.648 51.66C212.924 52.496 214.816 54.168 215.696 55.268C219.172 52.848 220.712 48.712 221.196 45.676H224.276V54.388H229.864V45.676H234.132ZM230.172 26.712V24.952H235.716V26.712H230.172ZM235.716 19.408V20.904H230.172V19.408H235.716ZM242.008 14.964H224.1V31.2H235.716V47.92C235.716 48.536 235.496 48.8 234.836 48.8C234.176 48.8 232.064 48.8 230.392 48.712C231.228 50.34 232.064 53.288 232.24 55.004C235.628 55.048 237.96 54.872 239.764 53.816C241.524 52.76 242.008 51.044 242.008 48.008V14.964ZM262.072 14.656H248.388V19.408H262.072V14.656ZM263.744 20.684H246.1V25.656H263.744V20.684ZM262.16 33.048H248.256V37.8H262.16V33.048ZM277.868 38.02C277.032 39.692 275.976 41.188 274.7 42.508C273.292 41.144 272.148 39.648 271.268 38.02H277.868ZM256.616 47.964H253.448V44.224H256.616V47.964ZM281.96 32.08L280.86 32.3H267.308C271.18 29.132 272.016 24.248 272.06 20.156H275.448V24.028C275.448 29.132 276.636 30.76 280.64 30.76H282.972C286.184 30.76 287.636 29.132 288.164 23.456C286.58 23.06 284.116 22.136 283.016 21.212C282.928 24.82 282.752 25.392 282.312 25.392H281.828C281.476 25.392 281.432 25.26 281.432 23.94V14.568H266.032V19.804C266.032 22.664 265.68 25.964 262.16 28.516V26.976H248.256V31.728H262.16V29C263.348 29.748 265.108 31.244 266.12 32.3H264.316V38.02H271.092L265.592 39.78C266.824 42.156 268.32 44.356 269.992 46.248C267.704 47.656 265.02 48.712 262.072 49.46V39.252H248.08V54.52H253.448V52.936H262.072V49.768C263.216 51.176 264.624 53.596 265.24 55.136C268.848 54.036 272.06 52.54 274.876 50.648C277.56 52.584 280.596 54.08 284.116 55.136C284.996 53.508 286.844 50.912 288.252 49.636C285.128 48.888 282.268 47.744 279.76 46.336C282.664 43.036 284.82 38.856 286.14 33.576L281.96 32.08ZM298.372 23.412H323.232V28.516H330.096V17.384H314.3V13.424H307.436V17.384H291.86V28.516H298.372V23.412ZM321.956 31.464V25.7H299.736V31.464H321.956ZM320.9 48.844C319.492 48.844 319.272 48.668 319.272 47.172V39.56H330.844V33.576H291.2V39.56H301.188C300.616 44.312 299.296 47.612 289.792 49.548C291.2 50.912 292.872 53.596 293.488 55.312C305.06 52.32 307.348 46.952 308.184 39.56H312.804V47.26C312.804 52.76 314.168 54.608 319.888 54.608H324.904C329.436 54.608 331.064 52.804 331.724 46.204C330.052 45.764 327.28 44.752 326.004 43.784C325.828 48.14 325.564 48.844 324.288 48.844H320.9ZM368.464 15.844L366.968 16.24H337.488V22.576H361.6C359.752 24.644 357.552 26.8 355.352 28.472H351.964V47.832C351.964 48.58 351.612 48.8 350.644 48.8C349.632 48.8 345.892 48.8 343.076 48.624C344.088 50.384 345.276 53.288 345.672 55.18C349.764 55.18 353.064 55.048 355.484 54.124C357.948 53.156 358.784 51.44 358.784 48.008V33.752C364.064 30.188 369.564 24.468 373.524 19.584L368.464 15.844ZM402.212 40.572L395.832 39.956C395.48 41.628 395.04 44.004 395.04 46.248C395.04 50.736 399.132 53.552 406.832 53.552C410.528 53.552 413.476 53.2 416.028 52.892L416.292 46.116C412.904 46.688 409.824 47.04 406.876 47.04C403.004 47.04 401.64 45.896 401.64 44.048C401.64 43.168 401.904 41.716 402.212 40.572ZM397.284 16.02L389.144 15.404C389.276 16.504 389.232 18.484 389.012 20.332C388.968 20.86 388.88 21.432 388.748 22.092C387.56 22.136 386.416 22.18 385.228 22.18C383.292 22.18 381.928 22.092 379.552 21.828L379.728 28.472C381.224 28.56 382.896 28.648 385.184 28.648C385.888 28.648 386.636 28.648 387.384 28.604C387.164 29.66 386.856 30.716 386.592 31.728C384.964 37.844 381.488 47.216 378.848 51.572L386.284 54.08C388.792 48.624 391.696 39.692 393.324 33.576C393.764 31.816 394.204 29.924 394.644 28.032C397.46 27.724 400.32 27.24 402.828 26.624V19.98C400.584 20.508 398.34 20.948 396.052 21.3C396.14 21.036 396.184 20.772 396.228 20.552C396.448 19.54 396.932 17.384 397.284 16.02ZM399 29.308V35.512C401.816 35.16 404.5 35.028 407.712 35.028C410.44 35.028 413.168 35.336 415.368 35.6L415.5 29.22C412.816 28.956 410.176 28.824 407.712 28.824C404.808 28.824 401.552 29.044 399 29.308ZM410.836 17.252L406.7 18.924C407.888 20.64 409.164 23.236 410.088 25.04L414.268 23.28C413.476 21.74 411.936 18.88 410.836 17.252ZM416.248 15.14L412.112 16.812C413.3 18.484 414.708 21.08 415.588 22.884L419.724 21.124C418.976 19.628 417.392 16.812 416.248 15.14ZM455.672 15.624H447.972C448.148 16.328 448.412 17.78 448.5 18.88C448.588 20.068 448.676 22.092 448.676 24.292C447.092 24.336 445.508 24.38 444.012 24.38C441.68 24.38 439.876 24.248 437.588 23.94V30.672C439.92 30.76 442.384 30.892 444.188 30.892C445.684 30.892 447.224 30.892 448.764 30.848V32.564C448.764 39.384 447.752 42.728 445.156 45.896C443.836 47.436 441.416 49.02 439.524 49.856L445.684 54.696C454.132 49.064 455.364 43.124 455.364 32.608V30.584C457.74 30.452 459.896 30.32 461.568 30.188L461.612 23.28C459.94 23.544 457.74 23.764 455.364 23.94C455.364 21.74 455.364 19.76 455.408 18.88C455.452 17.868 455.496 16.724 455.672 15.624ZM433.98 16.416L426.104 15.668C426.06 16.944 426.016 18.616 425.796 19.936C425.224 23.5 424.476 30.276 424.476 37.536C424.476 42.948 426.104 49.328 427.116 51.968L433.1 51.396C433.056 50.692 433.012 49.856 433.012 49.372C433.012 48.888 433.144 47.832 433.32 47.128C433.892 44.444 434.948 40.044 436.4 35.864L433.144 33.752C432.484 35.028 431.736 36.876 431.164 37.932C430.284 33.488 431.868 24.468 432.792 20.42C433.012 19.452 433.54 17.648 433.98 16.416ZM467.816 20.156L468.476 27.416C473.756 26.228 481.5 25.348 485.284 24.952C482.908 27.108 479.696 31.772 479.696 37.8C479.696 47.172 488.1 52.496 497.912 53.244L500.42 45.852C492.808 45.412 486.736 42.86 486.736 36.392C486.736 31.156 490.828 26.008 495.58 24.952C498 24.468 501.74 24.468 504.028 24.424L503.984 17.56C500.772 17.692 495.58 18 491.18 18.352C483.128 19.056 476.484 19.584 472.348 19.936C471.512 20.024 469.576 20.112 467.816 20.156ZM497.78 28.12L493.952 29.704C495.36 31.728 496.108 33.18 497.296 35.732L501.212 34.016C500.42 32.388 498.88 29.748 497.78 28.12ZM502.752 26.008L498.968 27.724C500.42 29.704 501.256 31.068 502.532 33.576L506.404 31.728C505.524 30.144 503.896 27.592 502.752 26.008Z" fill="black"/>
    <path d="M179.088 191.352C179.088 190.076 180.144 189.02 181.42 189.02C182.696 189.02 183.752 190.076 183.752 191.352C183.752 192.628 182.696 193.684 181.42 193.684C180.144 193.684 179.088 192.628 179.088 191.352ZM175.964 191.352C175.964 191.572 175.964 191.748 176.008 191.924C174.82 192.1 173.588 192.144 172.84 192.144H153.436C151.984 192.144 149.08 191.924 147.716 191.748V199.272C148.86 199.184 151.28 199.052 153.436 199.052H172.796C172.224 202.572 170.772 206.928 167.956 210.404C164.48 214.716 159.508 218.588 150.664 220.568L156.472 226.948C164.216 224.44 170.42 219.908 174.38 214.584C178.164 209.48 179.968 202.792 181.024 198.656C181.156 198.128 181.332 197.468 181.552 196.808C184.412 196.808 186.876 194.344 186.876 191.352C186.876 188.36 184.412 185.896 181.42 185.896C178.428 185.896 175.964 188.36 175.964 191.352ZM195.676 222.064L200.736 226.464C201.968 225.628 203.112 225.276 203.772 225.056C213.804 221.536 223 216.388 229.204 209.128L225.42 203.056C219.7 209.832 210.108 215.376 203.64 217.356V195.664C203.64 193.728 203.816 192.144 204.124 190.12H195.764C196.072 191.572 196.336 193.728 196.336 195.664V218.808C196.336 219.908 196.292 220.744 195.676 222.064ZM266.076 187.48L261.94 189.152C263.128 190.868 264.404 193.464 265.328 195.268L269.508 193.508C268.716 191.968 267.176 189.108 266.076 187.48ZM271.488 185.368L267.352 187.04C268.54 188.712 269.948 191.308 270.828 193.112L274.964 191.352C274.216 189.856 272.632 187.04 271.488 185.368ZM242.932 218.896C242.932 224.616 244.34 227.168 255.384 227.168C259.696 227.168 265.46 226.684 268.936 226.2L269.156 218.984C264.8 219.864 259.52 220.524 255.164 220.524C250.588 220.524 250.016 219.6 250.016 217.004V206.18C255.34 205.124 260.18 204.156 261.764 203.848C260.576 205.96 257.892 209.524 255.208 211.9L261.06 215.332C264.008 212.516 268.32 206.18 270.212 202.484C270.652 201.604 271.4 200.46 271.84 199.756L266.692 195.752C265.724 196.28 264.536 196.588 263.128 196.94C261.104 197.424 255.736 198.524 250.016 199.58V195.356C250.016 193.728 250.236 191.088 250.456 189.724H242.536C242.756 191.088 242.932 193.772 242.932 195.356V200.9C238.752 201.648 235.012 202.264 232.9 202.528L234.176 209.48C236.068 209.04 239.28 208.38 242.932 207.632V218.896ZM286.712 189.856L281.652 195.268C284.82 197.512 290.364 202.352 292.696 204.904L298.152 199.316C295.512 196.5 289.748 191.924 286.712 189.856ZM280.2 219.072L284.732 226.112C290.276 225.232 295.996 222.944 300.484 220.304C307.832 215.992 314.08 209.876 317.6 203.628L313.464 196.104C310.516 202.308 304.576 209.128 296.656 213.704C292.344 216.212 286.668 218.192 280.2 219.072ZM333 219.6C333 221.404 332.78 224.352 332.472 226.244H340.832C340.612 224.264 340.348 220.788 340.348 219.6V208.292C345.012 209.964 351.04 212.296 355.484 214.584L358.52 207.148C354.824 205.344 346.288 202.22 340.348 200.504V194.476C340.348 192.364 340.612 190.428 340.788 188.756H332.472C332.824 190.428 333 192.716 333 194.476V219.6ZM369.96 212.12H375.02L376.164 197.248L376.428 190.252H368.552L368.816 197.248L369.96 212.12ZM372.468 224.616C375.196 224.616 377.132 222.46 377.132 219.732C377.132 217.004 375.196 214.892 372.468 214.892C369.784 214.892 367.848 217.004 367.848 219.732C367.848 222.46 369.784 224.616 372.468 224.616Z" fill="black"/>
    <path d="M107.688 173.5H119.388V161.6C131.288 159 137.188 150.4 137.188 139.4C137.188 117.9 107.188 118.4 107.188 108.3C107.188 103.3 109.988 101.4 115.288 101.4C119.888 101.4 123.488 103.3 127.588 107L136.388 96.8C131.988 92 126.688 88.5 119.388 87.4V75.8H107.688V87.6C96.7875 89.8 90.2875 97.7 90.2875 109.1C90.2875 129.5 120.188 129.8 120.188 140.7C120.188 145.6 117.488 148 111.288 148C106.088 148 101.088 145.9 95.1875 141.4L87.3875 153.4C92.8875 158.4 100.988 161.4 107.688 162.2V173.5ZM151.925 161H198.925V146.6H185.525V86.5H172.425C167.225 89.8 162.025 91.8 154.025 93.3V104.3H167.725V146.6H151.925V161ZM235.563 162.4C251.263 162.4 261.863 149 261.863 123.4C261.863 97.9 251.263 85.2 235.563 85.2C219.863 85.2 209.163 97.8 209.163 123.4C209.163 149 219.863 162.4 235.563 162.4ZM235.563 148.6C230.263 148.6 225.963 143.8 225.963 123.4C225.963 103.1 230.263 98.8 235.563 98.8C240.863 98.8 245.063 103.1 245.063 123.4C245.063 143.8 240.863 148.6 235.563 148.6ZM296.5 162.4C312.2 162.4 322.8 149 322.8 123.4C322.8 97.9 312.2 85.2 296.5 85.2C280.8 85.2 270.1 97.8 270.1 123.4C270.1 149 280.8 162.4 296.5 162.4ZM296.5 148.6C291.2 148.6 286.9 143.8 286.9 123.4C286.9 103.1 291.2 98.8 296.5 98.8C301.8 98.8 306 103.1 306 123.4C306 143.8 301.8 148.6 296.5 148.6ZM357.438 162.4C373.138 162.4 383.738 149 383.738 123.4C383.738 97.9 373.138 85.2 357.438 85.2C341.738 85.2 331.038 97.8 331.038 123.4C331.038 149 341.738 162.4 357.438 162.4ZM357.438 148.6C352.138 148.6 347.838 143.8 347.838 123.4C347.838 103.1 352.138 98.8 357.438 98.8C362.738 98.8 366.938 103.1 366.938 123.4C366.938 143.8 362.738 148.6 357.438 148.6ZM418.375 162.4C434.075 162.4 444.675 149 444.675 123.4C444.675 97.9 434.075 85.2 418.375 85.2C402.675 85.2 391.975 97.8 391.975 123.4C391.975 149 402.675 162.4 418.375 162.4ZM418.375 148.6C413.075 148.6 408.775 143.8 408.775 123.4C408.775 103.1 413.075 98.8 418.375 98.8C423.675 98.8 427.875 103.1 427.875 123.4C427.875 143.8 423.675 148.6 418.375 148.6Z" fill="url(#paint1_linear_7_34)"/>
    <defs>
        <linearGradient id="paint0_linear_7_34" x1="289.5" y1="335" x2="289.5" y2="472" gradientUnits="userSpaceOnUse">
            <stop offset="0.34375" stop-color="#893DAE"/>
            <stop offset="1" stop-color="#5641F9"/>
        </linearGradient>
        <linearGradient id="paint1_linear_7_34" x1="266" y1="45" x2="266" y2="190" gradientUnits="userSpaceOnUse">
            <stop stop-color="#BF0384"/>
            <stop offset="0.859375" stop-color="#FD732D"/>
        </linearGradient>
    </defs>
</svg>
