<svg width="260" height="486" viewBox="0 0 260 486" fill="none" xmlns="http://www.w3.org/2000/svg">
    <path d="M44.475 442.875H50.91V436.33C57.455 434.9 60.7 430.17 60.7 424.12C60.7 412.295 44.2 412.57 44.2 407.015C44.2 404.265 45.74 403.22 48.655 403.22C51.185 403.22 53.165 404.265 55.42 406.3L60.26 400.69C57.84 398.05 54.925 396.125 50.91 395.52V389.14H44.475V395.63C38.48 396.84 34.905 401.185 34.905 407.455C34.905 418.675 51.35 418.84 51.35 424.835C51.35 427.53 49.865 428.85 46.455 428.85C43.595 428.85 40.845 427.695 37.6 425.22L33.31 431.82C36.335 434.57 40.79 436.22 44.475 436.66V442.875ZM68.8056 436H94.6556V428.08H87.2856V395.025H80.0806C77.2206 396.84 74.3606 397.94 69.9606 398.765V404.815H77.4956V428.08H68.8056V436ZM113.706 436.77C121.571 436.77 128.501 431.435 128.501 422.25C128.501 413.395 122.671 409.325 115.741 409.325C114.201 409.325 112.991 409.545 111.506 410.15L112.111 403.22H126.686V395.025H103.696L102.651 415.32L106.941 418.125C109.361 416.585 110.461 416.145 112.716 416.145C116.236 416.145 118.711 418.345 118.711 422.47C118.711 426.705 116.236 428.85 112.276 428.85C109.031 428.85 106.171 427.145 103.861 424.945L99.4063 431.105C102.651 434.295 107.161 436.77 113.706 436.77ZM148.322 436.77C156.957 436.77 162.787 429.4 162.787 415.32C162.787 401.295 156.957 394.31 148.322 394.31C139.687 394.31 133.802 401.24 133.802 415.32C133.802 429.4 139.687 436.77 148.322 436.77ZM148.322 429.18C145.407 429.18 143.042 426.54 143.042 415.32C143.042 404.155 145.407 401.79 148.322 401.79C151.237 401.79 153.547 404.155 153.547 415.32C153.547 426.54 151.237 429.18 148.322 429.18ZM181.838 436.77C190.473 436.77 196.303 429.4 196.303 415.32C196.303 401.295 190.473 394.31 181.838 394.31C173.203 394.31 167.318 401.24 167.318 415.32C167.318 429.4 173.203 436.77 181.838 436.77ZM181.838 429.18C178.923 429.18 176.558 426.54 176.558 415.32C176.558 404.155 178.923 401.79 181.838 401.79C184.753 401.79 187.063 404.155 187.063 415.32C187.063 426.54 184.753 429.18 181.838 429.18Z" fill="url(#paint0_linear_7_70)"/>
    <path d="M15.74 398.84H8.1V398.36H15.74V398.84ZM15.74 401.04H8.1V400.54H15.74V401.04ZM18.66 396.54H5.32V402.86H18.66V396.54ZM16.98 408.28C16.72 408.78 16.42 409.24 16.06 409.68C15.68 409.24 15.34 408.78 15.08 408.28H16.98ZM7.1 411.22V410.58H9.16V411.1L7.1 411.22ZM7.1 408.08H9.16V408.62H7.1V408.08ZM9.16 405.64V406.12H7.1V405.64H9.16ZM18.66 406.02L18.18 406.1H12.3V408.28H14.16L12.64 408.7C13.1 409.68 13.62 410.56 14.26 411.34C13.56 411.84 12.78 412.26 11.94 412.56V405.64H21V403.36H2.98V405.64H4.46V411.36C3.86 411.4 3.3 411.42 2.8 411.44L2.98 413.92C4.72 413.78 6.94 413.62 9.16 413.46V414.9H11.94V413.08C12.4 413.64 12.88 414.4 13.14 414.94C14.28 414.48 15.32 413.92 16.24 413.22C17.24 413.94 18.4 414.5 19.72 414.88C20.08 414.2 20.84 413.14 21.42 412.62C20.2 412.34 19.1 411.92 18.16 411.36C19.18 410.1 19.96 408.56 20.46 406.68L18.66 406.02ZM20.98 427.1V424.08H13.3C13.46 422.32 13.48 420.56 13.5 418.9H10.3C10.28 420.56 10.3 422.32 10.16 424.08H3.06V427.1H9.68C8.88 430.36 7.04 433.36 2.66 435.34C3.52 435.98 4.4 437.02 4.86 437.82C8.8 435.86 10.92 433.08 12.06 430C13.6 433.54 15.8 436.2 19.32 437.82C19.78 436.98 20.76 435.7 21.48 435.06C17.8 433.64 15.48 430.72 14.18 427.1H20.98Z" fill="black"/>
    <path d="M10.096 468.858L6.922 467.363C5.956 469.364 4.185 471.779 2.644 473.274L5.657 475.321C6.876 473.987 8.992 470.928 10.096 468.858ZM20.124 467.248L17.088 468.904C18.146 470.307 19.733 473.044 20.768 475.114L24.034 473.32C23.114 471.641 21.274 468.72 20.124 467.248ZM19.779 458.163L17.617 459.037C18.238 459.934 18.813 461.107 19.296 462.05L21.481 461.13C21.067 460.325 20.354 459.014 19.779 458.163ZM22.93 457.496L20.768 458.37C21.389 459.244 22.033 460.417 22.493 461.36L24.655 460.44C24.264 459.658 23.528 458.37 22.93 457.496ZM15.708 458.6H11.591C11.683 459.037 11.798 460.164 11.798 460.808V462.349H6.278C5.565 462.349 4.622 462.257 3.909 462.165V465.822C4.576 465.753 5.588 465.73 6.278 465.73H11.798C11.798 466.765 11.798 473.711 11.775 474.355C11.752 474.953 11.545 475.137 10.97 475.137C10.418 475.137 9.429 475.068 8.463 474.884L8.808 478.311C10.096 478.472 11.43 478.518 12.81 478.518C14.581 478.518 15.455 477.575 15.455 476.172V465.73H20.423C21.09 465.73 22.102 465.753 22.884 465.822V462.188C22.24 462.28 21.113 462.349 20.4 462.349H15.455V460.831C15.455 460.21 15.639 458.922 15.708 458.6ZM26.978 465.96V470.353C27.921 470.284 29.646 470.215 30.957 470.215H43.17C44.113 470.215 45.401 470.33 45.999 470.353V465.96C45.332 466.006 44.205 466.121 43.17 466.121H30.957C29.83 466.121 27.898 466.029 26.978 465.96ZM58.189 461.498V463.706H52.669C51.68 463.706 50.691 463.614 49.863 463.522V467.386C50.714 467.317 51.68 467.248 52.761 467.248H58.143C57.867 470.744 56.464 473.918 51.91 475.965L55.383 478.541C60.466 475.459 61.823 471.641 62.03 467.248H66.676C67.711 467.248 68.953 467.317 69.505 467.363V463.545C68.953 463.614 67.918 463.706 66.699 463.706H62.053V461.521C62.053 460.785 62.099 459.451 62.26 458.577H57.844C58.097 459.451 58.189 460.693 58.189 461.498ZM90.619 461.291L88.342 459.612C87.813 459.796 86.732 459.957 85.582 459.957H77.9C77.233 459.957 75.761 459.888 74.956 459.773V463.729C75.6 463.683 76.865 463.545 77.9 463.545H85.053C84.57 465.017 83.328 467.041 81.833 468.743C79.786 471.02 76.152 473.849 72.426 475.206L75.324 478.219C78.337 476.77 81.35 474.447 83.765 471.94C85.835 473.941 87.79 476.149 89.262 478.242L92.459 475.459C91.194 473.895 88.434 470.974 86.203 469.042C87.698 466.972 88.917 464.672 89.676 462.97C89.929 462.395 90.412 461.59 90.619 461.291Z" fill="black"/>
    <path d="M14.475 361.55C14.225 361.3 13.6 360.75 12.925 360.125C13.6 359.425 14.375 358.5 15.3 357.7L13 355.775C12.575 356.6 11.85 357.75 11.225 358.625L10.675 358.175C11.875 356.3 12.925 354.25 13.675 352.175L11.65 350.825L11.05 350.975H10.6V346.65H7.025V350.975H4V354.225H9.225C7.775 356.975 5.575 359.65 3.3 361.2C3.875 361.85 4.825 363.65 5.15 364.575C5.775 364.075 6.4 363.5 7.025 362.85V370.375H10.6V362.05C11.275 362.85 11.9 363.675 12.35 364.325L14.475 361.55ZM13.325 348.325V351.75H16.6C16.475 358.025 16.15 363.9 11.175 367.5C12.15 368.2 13.25 369.425 13.85 370.4C19.4 366.05 20.1 359.05 20.3 351.75H23.125C22.975 361.425 22.75 365.4 22.075 366.2C21.8 366.6 21.55 366.725 21.125 366.725C20.525 366.725 19.45 366.725 18.225 366.625C18.85 367.7 19.325 369.35 19.375 370.375C20.725 370.4 22.1 370.425 23.05 370.2C24.05 369.975 24.75 369.6 25.475 368.45C26.425 367.05 26.65 362.575 26.875 350.125C26.9 349.65 26.9 348.325 26.9 348.325H13.325ZM42.025 360.2H38.55V356.65H42.025V360.2ZM35.125 353.5V363.325H45.675V353.5H35.125ZM33.4 365.65V351.1H47.425V365.65H33.4ZM29.625 347.375V370.375H33.4V369.025H47.425V370.375H51.4V347.375H29.625ZM58.75 347.95V351.65H64.275C64.35 352.425 64.45 353.25 64.6 354.1L62.8 353.775C61.525 360.125 58.6 364.875 53.55 367.375C54.5 368.05 56.2 369.575 56.875 370.35C60.9 367.875 63.85 363.925 65.75 358.7C67.175 363.05 69.825 367.45 74.575 370.3C75.2 369.375 76.675 367.75 77.5 367.1C68.575 361.9 67.85 352.875 67.85 347.95H58.75ZM88.4 362.3V366.625H85.9L87.725 365.825C87.4 364.825 86.575 363.45 85.775 362.3H88.4ZM94.875 362.3C94.35 363.55 93.5 365.05 92.8 366.075L94.125 366.625H92.275V362.3H94.875ZM86.7 354.05C88.2 352.75 89.475 351.375 90.4 350.075C91.325 351.35 92.675 352.725 94.2 354.05H86.7ZM96.075 362.3H99.5V359.2H92.275V357.2H96.725V356.025C97.925 356.875 99.15 357.65 100.35 358.3C101.025 357.175 101.85 355.95 102.75 355.025C98.75 353.475 94.875 350.425 92.15 346.525H88.35C86.55 349.5 82.6 353.275 78.325 355.325C79.1 356.075 80.15 357.425 80.6 358.275C81.8 357.625 82.975 356.9 84.1 356.1V357.2H88.4V359.2H81.25V362.3H84.375L82.525 363.075C83.25 364.15 83.975 365.55 84.4 366.625H79.925V369.725H101.1V366.625H96C96.75 365.675 97.625 364.4 98.5 363.175L96.075 362.3ZM104.6 350.475L104.975 354.6C107.975 353.925 112.375 353.425 114.525 353.2C113.175 354.425 111.35 357.075 111.35 360.5C111.35 365.825 116.125 368.85 121.7 369.275L123.125 365.075C118.8 364.825 115.35 363.375 115.35 359.7C115.35 356.725 117.675 353.8 120.375 353.2C121.75 352.925 123.875 352.925 125.175 352.9L125.15 349C123.325 349.075 120.375 349.25 117.875 349.45C113.3 349.85 109.525 350.15 107.175 350.35C106.7 350.4 105.6 350.45 104.6 350.475ZM121.625 355L119.45 355.9C120.25 357.05 120.675 357.875 121.35 359.325L123.575 358.35C123.125 357.425 122.25 355.925 121.625 355ZM124.45 353.8L122.3 354.775C123.125 355.9 123.6 356.675 124.325 358.1L126.525 357.05C126.025 356.15 125.1 354.7 124.45 353.8Z" fill="black"/>
    <path d="M4.625 16.25V20.2C5.325 20.15 6.425 20.1 7.15 20.1H13.675C13.525 22.05 13.05 23.775 12.075 25.225C11.075 26.625 9.325 28.05 7.65 28.675L11.2 31.225C13.475 30.075 15.425 28.05 16.275 26.275C17.125 24.575 17.75 22.6 17.925 20.1H23.525C24.275 20.1 25.325 20.125 26 20.175V16.25C25.3 16.375 24.05 16.425 23.525 16.425H7.15C6.375 16.425 5.4 16.35 4.625 16.25ZM22.8 8.25L20.45 9.2C20.575 9.4 20.725 9.625 20.85 9.85C20.025 9.95 19.125 10 18.3 10H10.375C9.525 10 8.325 9.925 7.475 9.8V13.675C8.3 13.625 9.5 13.575 10.375 13.575H18.3C19.25 13.575 20.275 13.625 21.2 13.675V10.425C21.625 11.2 22.05 12.025 22.375 12.675L24.75 11.675C24.3 10.8 23.425 9.175 22.8 8.25ZM25.875 7.05L23.525 8C24.2 8.95 25 10.425 25.5 11.45L27.85 10.45C27.425 9.6 26.525 8 25.875 7.05ZM32.15 10.275V14.025C32.925 13.975 33.75 13.95 34.675 13.95H37.1V17.625H33.45C32.625 17.625 31.225 17.525 30.5 17.475V21.425C31.3 21.375 32.7 21.3 33.45 21.3H37.1V25.65C37.1 28.45 38.175 30.15 43.2 30.15C45.525 30.15 48.6 30.075 50.05 30L50.325 25.875C48.4 26.075 46.1 26.225 43.95 26.225C42.1 26.225 41.275 25.875 41.275 24.45V21.3H48.425C48.975 21.3 50.225 21.275 50.975 21.375L50.95 17.5C50.25 17.55 48.85 17.625 48.325 17.625H41.275V13.95H46.8C47.725 13.95 48.475 14 49.15 14.025V10.275C48.55 10.35 47.65 10.4 46.8 10.4H34.675C33.75 10.4 32.925 10.325 32.15 10.275ZM59.15 25.225V13.675H71.675V25.225H59.15ZM55.35 9.975V30.95H59.15V28.975H71.675V30.95H75.675V9.975H55.35ZM94.55 25.95H100.975V22.85H94.55V20.9C95.1 21.35 95.65 21.875 95.95 22.2C96.725 21.6 97.4 20.875 97.95 20.025C98.9 20.85 99.8 21.675 100.35 22.275L102.45 19.75C101.725 19.05 100.45 18.05 99.3 17.15C99.575 16.275 99.775 15.35 99.925 14.35L96.7 14C96.45 16.1 95.8 17.9 94.55 19.175V13.75H91.05V18.725C90.575 18.225 90 17.675 89.4 17.175C89.65 16.275 89.825 15.3 89.925 14.225L86.625 14C86.425 16.625 85.675 18.7 83.85 20C83.925 18.725 83.95 17.525 83.95 16.475V13.05H102.025V9.7H93.225V7.625H89.425V9.7H80.4V16.45C80.4 20.15 80.25 25.5 78.275 29.1C79.125 29.45 80.725 30.5 81.375 31.125C82.95 28.25 83.6 24.05 83.825 20.375C84.6 20.9 85.7 21.8 86.175 22.3C86.975 21.7 87.625 20.95 88.175 20.1C88.8 20.75 89.375 21.4 89.725 21.9L91.05 20.25V22.85H85.1V25.95H91.05V27.725H83.55V30.825H102.25V27.725H94.55V25.95ZM11.425 47.05V47.9H8.375V47.05H11.425ZM8.375 51.125V50.2H11.425V51.125H8.375ZM14.825 53.675V44.525H4.825V67.375H8.375V53.675H14.825ZM14.575 59.05V57.625H16.225V59.05H14.575ZM21.825 61.975V59.05H19.4V57.625H21.475V54.8H9.525V57.625H11.5V59.05H9.2V61.975H11.35C11.075 63.15 10.4 64.55 9.05 65.375C9.775 65.85 10.85 66.8 11.35 67.425C13.325 66.05 14.2 63.7 14.475 61.975H16.225V66.925H19.4V61.975H21.825ZM19.575 51.2V50.2H22.725V51.2H19.575ZM22.725 47.05V47.9H19.575V47.05H22.725ZM26.3 44.525H16.125V53.75H22.725V63.25C22.725 63.6 22.6 63.75 22.225 63.75C21.85 63.75 20.65 63.75 19.7 63.7C20.175 64.625 20.65 66.3 20.75 67.275C22.675 67.3 24 67.2 25.025 66.6C26.025 66 26.3 65.025 26.3 63.3V44.525ZM37.7 44.35H29.925V47.05H37.7V44.35ZM38.65 47.775H28.625V50.6H38.65V47.775ZM37.75 54.8H29.85V57.5H37.75V54.8ZM46.675 57.625C46.2 58.575 45.6 59.425 44.875 60.175C44.075 59.4 43.425 58.55 42.925 57.625H46.675ZM34.6 63.275H32.8V61.15H34.6V63.275ZM49 54.25L48.375 54.375H40.675C42.875 52.575 43.35 49.8 43.375 47.475H45.3V49.675C45.3 52.575 45.975 53.5 48.25 53.5H49.575C51.4 53.5 52.225 52.575 52.525 49.35C51.625 49.125 50.225 48.6 49.6 48.075C49.55 50.125 49.45 50.45 49.2 50.45H48.925C48.725 50.45 48.7 50.375 48.7 49.625V44.3H39.95V47.275C39.95 48.9 39.75 50.775 37.75 52.225V51.35H29.85V54.05H37.75V52.5C38.425 52.925 39.425 53.775 40 54.375H38.975V57.625H42.825L39.7 58.625C40.4 59.975 41.25 61.225 42.2 62.3C40.9 63.1 39.375 63.7 37.7 64.125V58.325H29.75V67H32.8V66.1H37.7V64.3C38.35 65.1 39.15 66.475 39.5 67.35C41.55 66.725 43.375 65.875 44.975 64.8C46.5 65.9 48.225 66.75 50.225 67.35C50.725 66.425 51.775 64.95 52.575 64.225C50.8 63.8 49.175 63.15 47.75 62.35C49.4 60.475 50.625 58.1 51.375 55.1L49 54.25ZM58.325 49.325H72.45V52.225H76.35V45.9H67.375V43.65H63.475V45.9H54.625V52.225H58.325V49.325ZM71.725 53.9V50.625H59.1V53.9H71.725ZM71.125 63.775C70.325 63.775 70.2 63.675 70.2 62.825V58.5H76.775V55.1H54.25V58.5H59.925C59.6 61.2 58.85 63.075 53.45 64.175C54.25 64.95 55.2 66.475 55.55 67.45C62.125 65.75 63.425 62.7 63.9 58.5H66.525V62.875C66.525 66 67.3 67.05 70.55 67.05H73.4C75.975 67.05 76.9 66.025 77.275 62.275C76.325 62.025 74.75 61.45 74.025 60.9C73.925 63.375 73.775 63.775 73.05 63.775H71.125ZM98.15 45.025L97.3 45.25H80.55V48.85H94.25C93.2 50.025 91.95 51.25 90.7 52.2H88.775V63.2C88.775 63.625 88.575 63.75 88.025 63.75C87.45 63.75 85.325 63.75 83.725 63.65C84.3 64.65 84.975 66.3 85.2 67.375C87.525 67.375 89.4 67.3 90.775 66.775C92.175 66.225 92.65 65.25 92.65 63.3V55.2C95.65 53.175 98.775 49.925 101.025 47.15L98.15 45.025ZM117.325 59.075L113.7 58.725C113.5 59.675 113.25 61.025 113.25 62.3C113.25 64.85 115.575 66.45 119.95 66.45C122.05 66.45 123.725 66.25 125.175 66.075L125.325 62.225C123.4 62.55 121.65 62.75 119.975 62.75C117.775 62.75 117 62.1 117 61.05C117 60.55 117.15 59.725 117.325 59.075ZM114.525 45.125L109.9 44.775C109.975 45.4 109.95 46.525 109.825 47.575C109.8 47.875 109.75 48.2 109.675 48.575C109 48.6 108.35 48.625 107.675 48.625C106.575 48.625 105.8 48.575 104.45 48.425L104.55 52.2C105.4 52.25 106.35 52.3 107.65 52.3C108.05 52.3 108.475 52.3 108.9 52.275C108.775 52.875 108.6 53.475 108.45 54.05C107.525 57.525 105.55 62.85 104.05 65.325L108.275 66.75C109.7 63.65 111.35 58.575 112.275 55.1C112.525 54.1 112.775 53.025 113.025 51.95C114.625 51.775 116.25 51.5 117.675 51.15V47.375C116.4 47.675 115.125 47.925 113.825 48.125C113.875 47.975 113.9 47.825 113.925 47.7C114.05 47.125 114.325 45.9 114.525 45.125ZM115.5 52.675V56.2C117.1 56 118.625 55.925 120.45 55.925C122 55.925 123.55 56.1 124.8 56.25L124.875 52.625C123.35 52.475 121.85 52.4 120.45 52.4C118.8 52.4 116.95 52.525 115.5 52.675ZM122.225 45.825L119.875 46.775C120.55 47.75 121.275 49.225 121.8 50.25L124.175 49.25C123.725 48.375 122.85 46.75 122.225 45.825ZM125.3 44.625L122.95 45.575C123.625 46.525 124.425 48 124.925 49.025L127.275 48.025C126.85 47.175 125.95 45.575 125.3 44.625ZM147.7 44.9H143.325C143.425 45.3 143.575 46.125 143.625 46.75C143.675 47.425 143.725 48.575 143.725 49.825C142.825 49.85 141.925 49.875 141.075 49.875C139.75 49.875 138.725 49.8 137.425 49.625V53.45C138.75 53.5 140.15 53.575 141.175 53.575C142.025 53.575 142.9 53.575 143.775 53.55V54.525C143.775 58.4 143.2 60.3 141.725 62.1C140.975 62.975 139.6 63.875 138.525 64.35L142.025 67.1C146.825 63.9 147.525 60.525 147.525 54.55V53.4C148.875 53.325 150.1 53.25 151.05 53.175L151.075 49.25C150.125 49.4 148.875 49.525 147.525 49.625C147.525 48.375 147.525 47.25 147.55 46.75C147.575 46.175 147.6 45.525 147.7 44.9ZM135.375 45.35L130.9 44.925C130.875 45.65 130.85 46.6 130.725 47.35C130.4 49.375 129.975 53.225 129.975 57.35C129.975 60.425 130.9 64.05 131.475 65.55L134.875 65.225C134.85 64.825 134.825 64.35 134.825 64.075C134.825 63.8 134.9 63.2 135 62.8C135.325 61.275 135.925 58.775 136.75 56.4L134.9 55.2C134.525 55.925 134.1 56.975 133.775 57.575C133.275 55.05 134.175 49.925 134.7 47.625C134.825 47.075 135.125 46.05 135.375 45.35ZM154.6 47.475L154.975 51.6C157.975 50.925 162.375 50.425 164.525 50.2C163.175 51.425 161.35 54.075 161.35 57.5C161.35 62.825 166.125 65.85 171.7 66.275L173.125 62.075C168.8 61.825 165.35 60.375 165.35 56.7C165.35 53.725 167.675 50.8 170.375 50.2C171.75 49.925 173.875 49.925 175.175 49.9L175.15 46C173.325 46.075 170.375 46.25 167.875 46.45C163.3 46.85 159.525 47.15 157.175 47.35C156.7 47.4 155.6 47.45 154.6 47.475ZM171.625 52L169.45 52.9C170.25 54.05 170.675 54.875 171.35 56.325L173.575 55.35C173.125 54.425 172.25 52.925 171.625 52ZM174.45 50.8L172.3 51.775C173.125 52.9 173.6 53.675 174.325 55.1L176.525 54.05C176.025 53.15 175.1 51.7 174.45 50.8Z" fill="black"/>
    <path d="M23.075 156.45C23.075 155.725 23.675 155.125 24.4 155.125C25.125 155.125 25.725 155.725 25.725 156.45C25.725 157.175 25.125 157.775 24.4 157.775C23.675 157.775 23.075 157.175 23.075 156.45ZM21.3 156.45C21.3 156.575 21.3 156.675 21.325 156.775C20.65 156.875 19.95 156.9 19.525 156.9H8.5C7.675 156.9 6.025 156.775 5.25 156.675V160.95C5.9 160.9 7.275 160.825 8.5 160.825H19.5C19.175 162.825 18.35 165.3 16.75 167.275C14.775 169.725 11.95 171.925 6.925 173.05L10.225 176.675C14.625 175.25 18.15 172.675 20.4 169.65C22.55 166.75 23.575 162.95 24.175 160.6C24.25 160.3 24.35 159.925 24.475 159.55C26.1 159.55 27.5 158.15 27.5 156.45C27.5 154.75 26.1 153.35 24.4 153.35C22.7 153.35 21.3 154.75 21.3 156.45ZM32.5 173.9L35.375 176.4C36.075 175.925 36.725 175.725 37.1 175.6C42.8 173.6 48.025 170.675 51.55 166.55L49.4 163.1C46.15 166.95 40.7 170.1 37.025 171.225V158.9C37.025 157.8 37.125 156.9 37.3 155.75H32.55C32.725 156.575 32.875 157.8 32.875 158.9V172.05C32.875 172.675 32.85 173.15 32.5 173.9ZM72.5 154.25L70.15 155.2C70.825 156.175 71.55 157.65 72.075 158.675L74.45 157.675C74 156.8 73.125 155.175 72.5 154.25ZM75.575 153.05L73.225 154C73.9 154.95 74.7 156.425 75.2 157.45L77.55 156.45C77.125 155.6 76.225 154 75.575 153.05ZM59.35 172.1C59.35 175.35 60.15 176.8 66.425 176.8C68.875 176.8 72.15 176.525 74.125 176.25L74.25 172.15C71.775 172.65 68.775 173.025 66.3 173.025C63.7 173.025 63.375 172.5 63.375 171.025V164.875C66.4 164.275 69.15 163.725 70.05 163.55C69.375 164.75 67.85 166.775 66.325 168.125L69.65 170.075C71.325 168.475 73.775 164.875 74.85 162.775C75.1 162.275 75.525 161.625 75.775 161.225L72.85 158.95C72.3 159.25 71.625 159.425 70.825 159.625C69.675 159.9 66.625 160.525 63.375 161.125V158.725C63.375 157.8 63.5 156.3 63.625 155.525H59.125C59.25 156.3 59.35 157.825 59.35 158.725V161.875C56.975 162.3 54.85 162.65 53.65 162.8L54.375 166.75C55.45 166.5 57.275 166.125 59.35 165.7V172.1ZM84.225 155.6L81.35 158.675C83.15 159.95 86.3 162.7 87.625 164.15L90.725 160.975C89.225 159.375 85.95 156.775 84.225 155.6ZM80.525 172.2L83.1 176.2C86.25 175.7 89.5 174.4 92.05 172.9C96.225 170.45 99.775 166.975 101.775 163.425L99.425 159.15C97.75 162.675 94.375 166.55 89.875 169.15C87.425 170.575 84.2 171.7 80.525 172.2ZM110.525 172.5C110.525 173.525 110.4 175.2 110.225 176.275H114.975C114.85 175.15 114.7 173.175 114.7 172.5V166.075C117.35 167.025 120.775 168.35 123.3 169.65L125.025 165.425C122.925 164.4 118.075 162.625 114.7 161.65V158.225C114.7 157.025 114.85 155.925 114.95 154.975H110.225C110.425 155.925 110.525 157.225 110.525 158.225V172.5ZM131.525 168.25H134.4L135.05 159.8L135.2 155.825H130.725L130.875 159.8L131.525 168.25ZM132.95 175.35C134.5 175.35 135.6 174.125 135.6 172.575C135.6 171.025 134.5 169.825 132.95 169.825C131.425 169.825 130.325 171.025 130.325 172.575C130.325 174.125 131.425 175.35 132.95 175.35Z" fill="black"/>
    <path d="M13.475 138.875H19.91V132.33C26.455 130.9 29.7 126.17 29.7 120.12C29.7 108.295 13.2 108.57 13.2 103.015C13.2 100.265 14.74 99.22 17.655 99.22C20.185 99.22 22.165 100.265 24.42 102.3L29.26 96.69C26.84 94.05 23.925 92.125 19.91 91.52V85.14H13.475V91.63C7.48 92.84 3.905 97.185 3.905 103.455C3.905 114.675 20.35 114.84 20.35 120.835C20.35 123.53 18.865 124.85 15.455 124.85C12.595 124.85 9.845 123.695 6.6 121.22L2.31 127.82C5.335 130.57 9.79 132.22 13.475 132.66V138.875ZM37.8056 132H63.6556V124.08H56.2856V91.025H49.0806C46.2206 92.84 43.3606 93.94 38.9606 94.765V100.815H46.4956V124.08H37.8056V132ZM83.8063 132.77C92.4413 132.77 98.2713 125.4 98.2713 111.32C98.2713 97.295 92.4413 90.31 83.8063 90.31C75.1713 90.31 69.2863 97.24 69.2863 111.32C69.2863 125.4 75.1713 132.77 83.8063 132.77ZM83.8063 125.18C80.8913 125.18 78.5263 122.54 78.5263 111.32C78.5263 100.155 80.8913 97.79 83.8063 97.79C86.7213 97.79 89.0313 100.155 89.0313 111.32C89.0313 122.54 86.7213 125.18 83.8063 125.18ZM117.322 132.77C125.957 132.77 131.787 125.4 131.787 111.32C131.787 97.295 125.957 90.31 117.322 90.31C108.687 90.31 102.802 97.24 102.802 111.32C102.802 125.4 108.687 132.77 117.322 132.77ZM117.322 125.18C114.407 125.18 112.042 122.54 112.042 111.32C112.042 100.155 114.407 97.79 117.322 97.79C120.237 97.79 122.547 100.155 122.547 111.32C122.547 122.54 120.237 125.18 117.322 125.18ZM150.838 132.77C159.473 132.77 165.303 125.4 165.303 111.32C165.303 97.295 159.473 90.31 150.838 90.31C142.203 90.31 136.318 97.24 136.318 111.32C136.318 125.4 142.203 132.77 150.838 132.77ZM150.838 125.18C147.923 125.18 145.558 122.54 145.558 111.32C145.558 100.155 147.923 97.79 150.838 97.79C153.753 97.79 156.063 100.155 156.063 111.32C156.063 122.54 153.753 125.18 150.838 125.18ZM184.353 132.77C192.988 132.77 198.818 125.4 198.818 111.32C198.818 97.295 192.988 90.31 184.353 90.31C175.718 90.31 169.833 97.24 169.833 111.32C169.833 125.4 175.718 132.77 184.353 132.77ZM184.353 125.18C181.438 125.18 179.073 122.54 179.073 111.32C179.073 100.155 181.438 97.79 184.353 97.79C187.268 97.79 189.578 100.155 189.578 111.32C189.578 122.54 187.268 125.18 184.353 125.18Z" fill="url(#paint1_linear_7_70)"/>
    <defs>
        <linearGradient id="paint0_linear_7_70" x1="115.5" y1="372" x2="115.5" y2="436" gradientUnits="userSpaceOnUse">
            <stop offset="0.34375" stop-color="#893DAE"/>
            <stop offset="1" stop-color="#5641F9"/>
        </linearGradient>
        <linearGradient id="paint1_linear_7_70" x1="130" y1="80" x2="130" y2="137" gradientUnits="userSpaceOnUse">
            <stop stop-color="#BF0384"/>
            <stop offset="0.859375" stop-color="#FD732D"/>
        </linearGradient>
    </defs>
</svg>
